# Made in Blockbench 4.1.3
mtllib CarBody1.mtl

o cube
v 0.16249999999999998 0.07500000000000001 0.2812500000000001
v 0.16875 0.05625000000000001 -0.2562500000000002
v 0.16874999999999998 1.734723475976807e-17 0.29375000000000007
v 0.16875 1.734723475976807e-17 -0.2562500000000002
v -0.1625 0.07500000000000001 0.2875000000000001
v -0.16875000000000004 0.05625000000000001 -0.2562500000000002
v -0.16875 1.734723475976807e-17 0.29375000000000007
v -0.16875000000000004 1.734723475976807e-17 -0.2562500000000002
v 0.1875 0.05624999999999998 -0.125
v 0.1875 1.734723475976807e-17 -0.125
v -0.1875 1.734723475976807e-17 -0.125
v -0.1875 0.05624999999999998 -0.125
v 0.1875 0.04374999999999997 0.22499999999999998
v -0.1875 0.04375 0.22499999999999998
v -0.1875 1.734723475976807e-17 0.24999999999999997
v 0.1875 1.734723475976807e-17 0.24999999999999997
v -0.125 0.07500000000000001 0.3125
v -0.125 1.734723475976807e-17 0.3125
v -0.125 1.734723475976807e-17 0.24999999999999997
v -0.125 1.734723475976807e-17 -0.125
v -0.1 1.734723475976807e-17 -0.3125
v -0.06875 0.07500000000000001 -0.3125
v -0.18125000000000002 0.07500000000000001 -0.08749999999999997
v -0.18125000000000002 0.07500000000000001 0.24999999999999997
v 0.125 0.07500000000000001 0.3125
v 0.125 1.734723475976807e-17 0.3125
v 0.125 1.734723475976807e-17 0.24999999999999997
v 0.125 1.734723475976807e-17 -0.125
v 0.1 1.734723475976807e-17 -0.3125
v 0.06875 0.07500000000000001 -0.3125
v 0.18125000000000005 0.07500000000000001 -0.08749999999999997
v 0.18125000000000005 0.07500000000000001 0.24999999999999997
v 0.125 0.175 -0.024999999999999994
v -0.125 0.175 -0.024999999999999994
v 0 0.175 0.24999999999999997
v 0 0.175 -0.056249999999999994
v 2.7755575615628914e-17 0.09375000000000003 -0.13124999999999995
v 0 0.09375000000000003 -0.325
v 0 1.734723475976807e-17 -0.325
v 0 1.734723475976807e-17 -0.125
v 0 1.734723475976807e-17 0.24999999999999997
v 0 1.734723475976807e-17 0.3125
v 2.7755575615628914e-17 0.07500000000000001 0.3125
v 0.11875 0.175 0.23124999999999998
v -0.11875 0.175 0.23124999999999996
vt 0.23749999999999974 0.3815875000000003
vt 0.22499999999999962 0.031587500000000324
vt 0.1812499999999995 0.00658750000000019
vt 0.1812499999999995 0.3815875000000003
vt 0.8187499999999994 0.3815875000000002
vt 0.8187499999999994 0.00658750000000019
vt 0.7749999999999995 0.031587500000000324
vt 0.7624999999999995 0.3815875000000002
vt 0.5625 0.623509112186379
vt 0.5625 0.686009112186379
vt 0.9375 0.686009112186379
vt 0.9375 0.623509112186379
vt 0.21205401785714284 0.953125
vt 0.21205401785714295 0.905525
vt 0.13705401785714288 0.9055249999999999
vt 0.13705401785714288 0.9498375
vt 0 0.4750249999999997
vt 0.05755625 0.5630124999999998
vt 0.07674375000000003 0.4483499999999997
vt 0.7748139239352472 0.0322344834073538
vt 0.7420870859814952 0.008364630080168078
vt 0.7623139239352474 0.38245971060497463
vt 0.23816874999999987 0.5131687500000002
vt 0.23816874999999987 0.3805812500000002
vt 0.1819187499999996 0.3805812500000002
vt 0.1819187499999996 0.5131687500000002
vt 0.5641593243802694 0.6860091121863788
vt 0.43984282516965567 0.6315464032695676
vt 0.38125 0.698509112186379
vt 0.8194187499999994 0.3805812500000002
vt 0.8194187499999996 0.5131687500000003
vt 0.7631687499999995 0.5131687500000003
vt 0.7631687499999995 0.3805812500000002
vt 0.756209970516306 0.37687253968292267
vt 0.7320150933922829 0.3768485650204647
vt 0.6808999360914092 0.5444788952966135
vt 0.9375000000000001 0.623509112186379
vt 0.9375 0.686009112186379
vt 0.9812500000000001 0.6422591121863791
vt 0.13593750000000016 0.6645834821428573
vt 0.13593750000000016 0.7895834821428573
vt 0.2109375000000001 0.7895834821428573
vt 0.2109375000000001 0.6645834821428573
vt 0.9999999999999998 0.9360091121863794
vt 0.9999999999999998 0.8110091121863792
vt 0.9375 0.8110091121863792
vt 0.9375 0.9360091121863794
vt 0.9375 0.936009112186379
vt 0.9375 0.811009112186379
vt 0.5625 0.811009112186379
vt 0.5625 0.936009112186379
vt 0.5593750000000001 0.9360091121863792
vt 0.5593750000000001 0.8110091121863792
vt 0.359375 0.8110091121863792
vt 0.37187499999999996 0.9110091121863791
vt 0.0017437499999999606 0.27473124999999976
vt 0.0017437499999999606 0.3755124999999998
vt 0.07674375000000003 0.30574374999999987
vt 0.4211906249999996 0.5797593749999992
vt 0.49870312499999914 0.5922593749999991
vt 0.5002656249999992 0.3766343749999992
vt 0.27046562500000004 0.3766343749999991
vt 0.3765624999999997 0.2487750000000003
vt 0.4984374999999991 0.2487750000000004
vt 0.4999999999999991 0.00658750000000019
vt 0.38124999999999964 0.025337500000000013
vt 0.1345812500000001 0.6268772321428572
vt 0.1345812500000001 0.6756897321428571
vt 0.20958125000000005 0.6756897321428571
vt 0.20958125000000005 0.6300772321428572
vt 0.978125 0.979759112186379
vt 0.996875 0.936009112186379
vt 0.934375 0.9360091121863789
vt 0.9375 0.998509112186379
vt 0.9375 0.936009112186379
vt 0.5625 0.936009112186379
vt 0.5625 0.998509112186379
vt 0.5726328909067913 1
vt 0.5632927094623545 0.9382018526929408
vt 0.4525547271286355 0.9870124368411994
vt 0.0007374999999999465 0.1874999999999999
vt 0.0007374999999999465 0.2763312499999998
vt 0.05512500000000001 0.1874999999999999
vt 0.31836730759938947 0.5430892165579889
vt 0.4176241587003049 0.5794074432113788
vt 0.2730960337003052 0.3740533402306301
vt 0.23682499999999976 0.38124999999999987
vt 0.2565875000000001 0.3437500000000001
vt 0.2565875000000001 0.006250000000000089
vt 0.37427968749999974 0.24792031250000002
vt 0.37427968749999974 0.024407812499999793
vt 0.2605046875 0.3352140625000004
vt 0.2685123071517005 0.37085581507873766
vt 0.49721833544467636 0.3733296682533037
vt 0.37349316532592103 0.2525723196146117
vt 0.6187499999999992 0.025337500000000013
vt 0.4999999999999991 0.00658750000000019
vt 0.4984374999999991 0.2487750000000002
vt 0.6218749999999991 0.24877499999999997
vt 0.6208039099644421 0.25557578758445176
vt 0.4994570916098915 0.25580270894631985
vt 0.4996562003494246 0.3740819389506038
vt 0.7315843749999995 0.3762656249999988
vt 0.4993656249999997 0.3762656249999987
vt 0.5009281249999997 0.591890624999999
vt 0.5837468749999997 0.5793906249999989
vt 0.07674375000000003 0.44476249999999984
vt 0.09549374999999996 0.37488749999999993
vt 0.0017437499999999606 0.37488749999999993
vt 0.37187500000000007 0.7078841121863789
vt 0.3593750000000001 0.807884112186379
vt 0.5593750000000001 0.807884112186379
vt 0.5593750000000001 0.682884112186379
vt 0.5625 0.686009112186379
vt 0.5625 0.811009112186379
vt 0.9375 0.811009112186379
vt 0.9375 0.686009112186379
vt 0.9375000000000002 0.6860091121863785
vt 0.9375000000000002 0.8110091121863787
vt 1 0.8110091121863787
vt 1 0.6860091121863785
vt 0.21205401785714284 0.9149
vt 0.21205401785714284 0.7898999999999999
vt 0.13705401785714288 0.7898999999999999
vt 0.13705401785714288 0.9149
vt 0.6240593749999994 0.025971874999999756
vt 0.6240593749999994 0.24948437499999998
vt 0.7317968749999993 0.3305281250000013
vt 0.13139062499999998 0.6618491071428605
vt 0.000965625000000081 0.7868491071428607
vt 0.13139062499999998 0.7868491071428607
vt 0.0011281250000003684 0.7866866071428606
vt 0.13155312499999983 0.9116866071428598
vt 0.13155312499999994 0.7866866071428606
vt 0.0011281250000001464 0.7866866071428606
vt 0.0011281250000000909 0.9131616071428599
vt 0.12995937499999977 0.9129116071428598
vt 0.12979687500000003 0.6620991071428604
vt 0.000965625000000081 0.6618491071428605
vt 0.000965625000000081 0.7883241071428608
vt 0 0.9918501488095247
vt 0.13138125 0.9905313988095249
vt 0.13138125 0.9486063988095249
vt 0.0031250000000000444 0.9329918217250859
vt 0.13216026658307278 0.94738905477398
vt 0.13292655045514856 0.9008195699295098
vt 0.004687500000000067 0.6429515235492201
vt 0.13170774406460428 0.6766269942495874
vt 0.13255963965382422 0.6278219286297658
vt 0.12882291666666645 0.6296397321428577
vt 0.12882291666666645 0.5931959821428576
vt 0.010504166666666759 0.5905272321428578
vt 0.23914620984629492 0.38002499999999995
vt 0.25789620984629513 0.010799298197424534
vt 0.22737414388892618 0.037430469970490376
vt 0.7402874999999989 0.007812500000000222
vt 0.7402874999999989 0.3453125
vt 0.760049999999999 0.3828125000000001
vt 0.20601212739839037 0.6285091103593335
vt 0.1316734579297092 0.5819363573465612
vt 0.13665158939675748 0.6246079067987385
vt 0.31881045331219804 0.5437387691095181
vt 0.27283474508013517 0.37584295109833865
vt 0.2378923016076661 0.377055779792144
vt 0.7318611404339537 0.3747178294247221
vt 0.5836070642007145 0.5789083518036905
vt 0.6801130453653312 0.5491738187715834
vt 0.2068463866995518 0.5845614538641525
vt 0.1315875179190793 0.5843973572580958
vt 0.20518517065651287 0.6321324572302615
vt 0.1855947311282188 0.011040436604232262
vt 0.22878740677335063 0.03699321442982284
vt 0.26084679260390053 0.01224060647671088
vt 0.137054017857143 0.95519375
vt 0.137054017857143 0.9971187499999999
vt 0.21252276785714297 0.9524
vt 0.8209598373994382 0.009109124088847453
vt 0.7456982913248031 0.008995781607524123
vt 0.7773208017812272 0.034304133050197416
vt 0.137054017857143 0.9975375
vt 0.212272767857143 1
vt 0.212272767857143 0.9524
vt 0.49878083544467633 0.3733296682533038
vt 0.5000853523541746 0.2549513331156116
vt 0.37505566532592105 0.2525723196146117
vt 0.6223664099644421 0.255575787584452
vt 0.5027812003494246 0.3725194389506038
vt 0.7476452980762388 0.3734020645186217
vt 0.37427968749999974 0.024407812499999793
vt 0.2561234375 0.007189062499999732
vt 0.2605046875 0.3352140625000004
vt 0.6240593749999994 0.025971874999999756
vt 0.7317968749999993 0.3305281250000013
vt 0.7419968749999994 0.008753124999999695
vt 0.0007374999999999465 0.2763312499999998
vt 0.07674374999999992 0.30207499999999976
vt 0.05512500000000001 0.1874999999999999
vt 0.05755625 0.5630124999999998
vt 0 0.4750249999999997
vt 0.0025874999999999926 0.5645749999999998
vt 0.0017437499999999606 0.3755124999999998
vt 0.09549374999999996 0.3755124999999998
vt 0.07674375000000003 0.30574374999999987
vt 0.07674375000000003 0.44476249999999984
vt 0.0017437499999999606 0.37488749999999993
vt 0.0017437500000000716 0.4755124999999999
vt 0.5632927094623545 0.9382018526929408
vt 0.37416219496340175 0.9149406381034273
vt 0.4525547271286355 0.9870124368411994
vt 0.43984282516965567 0.6315464032695676
vt 0.5641593243802694 0.6860091121863788
vt 0.572419556885958 0.6240573683937142
vt 0.978125 0.979759112186379
vt 0.934375 0.9360091121863789
vt 0.934375 0.998509112186379
vt 0.9375 0.686009112186379
vt 1 0.686009112186379
vt 0.9812500000000001 0.6422591121863791
vn 1 0 0
vn -1 0 0
vn 0 -1 0
vn -0.3939192985791664 0 0.9191450300180585
vn -0.5090150896146561 0.21208962067277343 -0.8342191746462453
vn -0.9815925834143897 0.19086522455279722 0.006816615162599893
vn 0.9899494936611666 0 -0.1414213562373092
vn 0 -1 0
vn -0.9899494936611666 0 -0.14142135623730903
vn -0.8440612646110492 0.5225141161877896 -0.12058018065872078
vn 0 -1 0
vn 0 0 1
vn 0 -1 0
vn 0 -1 0
vn 0 -1 0
vn 0.12386942099503495 0.05161225874793123 -0.9909553679602787
vn 0.2631174057921089 0.9647638212377321 -3.141064538602575e-17
vn 0 1 0
vn 0.6401843996644788 0 0.7682212795973768
vn 0 -1 0
vn 0 -1 0
vn 0 -1 0
vn 0.6332377902572613 0 -0.7739572992033221
vn 0.25043516133890437 0.9600014517991348 -0.1252175806694522
vn 0.9486832980505148 0.31622776601683517 0
vn 0.877029644377503 0.47995982062732306 0.02139096693603668
vn 0.24506738000418873 0.6092167967709763 -0.7541862328297922
vn 0 1 0
vn -0.1806775820130176 0.6671172258942187 -0.7227103280520704
vn -0.10289915108550537 0.9946917938265513 1.2283979220377483e-17
vn -0.17888543819998334 0 -0.9838699100999075
vn 0 -1 0
vn 0 -1 0
vn 0 -1 0
vn 0 0 1
vn -0.8770296443775031 0.47995982062732284 0.021390966936036683
vn 0 0.5299989400031803 0.8479983040050878
vn 0 0.5299989400031803 0.8479983040050878
vn -0.12105628481671979 0.6305014834204156 0.7666898038392247
vn 0.12105628481671969 0.6305014834204155 0.7666898038392249
vn -0.7523686569158383 0.5407649721582591 0.37618432845791827
vn -0.4521415954761861 0.579306419203866 0.6782123932142818
vn 0.5332740839487876 0.5532718620968688 0.6399289007385468
vn 0.724731637114762 0.5344895823721374 0.43483898226885703
vn 0.9815925834143898 0.19086522455279628 0.0068166151625998735
vn -0.9486832980505143 0.31622776601683644 0
vn 0.8470893075685765 0.1552997063875721 0.5082535845411457
vn 0.8440612646110496 0.522514116187789 -0.12058018065872099
vn -0.25043516133890426 0.9600014517991348 -0.12521758066945213
vn 0.916460589389061 0.07637171578242115 0.39276882402388286
vn 0.9861857140305987 0.08218214283588259 0.1438187499627944
vn -0.8888888888888894 0.11111111111111105 0.44444444444444375
vn -0.9861857140305987 0.08218214283588293 0.14381874996279514
vn -0.9164605893890613 0.0763717157824215 0.39276882402388236
vn 0.18067758201301765 0.6671172258942188 -0.7227103280520704
vn -0.2450673800041888 0.6092167967709763 -0.7541862328297925
vn 0.8479983040050878 0.5299989400031804 0
vn -0.8479983040050878 0.5299989400031803 0
vn 0.5090150896146562 0.21208962067277348 -0.8342191746462453
vn -0.6332377902572612 0 -0.7739572992033225
vn 0.17888543819998334 0 -0.9838699100999075
vn -0.12386942099503495 0.05161225874793123 -0.9909553679602787
vn 0 -1 0
vn 0 -1 0
vn 0 -1 0
vn 0 -1 0
usemtl m_1
f 9/1/1 13/2/1 16/3/1 10/4/1
f 11/5/2 15/6/2 14/7/2 12/8/2
f 11/9/3 20/10/3 19/11/3 15/12/3
f 7/13/4 18/14/4 17/15/4 5/16/4
f 21/17/5 6/18/5 22/19/5
f 14/20/6 24/21/6 12/22/6
f 2/23/7 9/24/7 10/25/7 4/26/7
f 20/27/8 8/28/8 21/29/8
f 8/30/9 11/31/9 12/32/9 6/33/9
f 12/34/10 23/35/10 6/36/10
f 15/37/11 19/38/11 7/39/11
f 25/40/12 43/41/12 42/42/12 26/43/12
f 26/44/13 42/45/13 41/46/13 27/47/13
f 27/48/14 41/49/14 40/50/14 28/51/14
f 28/52/15 40/53/15 39/54/15 29/55/15
f 29/56/16 39/57/16 30/58/16
f 30/59/17 38/60/17 37/61/17 31/62/17
f 33/63/18 36/64/18 35/65/18 44/66/18
f 1/67/19 25/68/19 26/69/19 3/70/19
f 3/71/20 26/72/20 27/73/20
f 16/74/21 27/75/21 28/76/21 10/77/21
f 10/78/22 28/79/22 4/80/22
f 4/81/23 29/82/23 2/83/23
f 2/84/24 30/85/24 31/86/24
f 9/87/25 31/88/25 32/89/25
f 33/90/26 44/91/26 31/92/26
f 31/93/27 37/94/27 33/95/27
f 45/96/28 35/97/28 36/98/28 34/99/28
f 34/100/29 36/101/29 37/102/29
f 23/103/30 37/104/30 38/105/30 22/106/30
f 22/107/31 38/108/31 39/109/31
f 21/110/32 39/111/32 40/112/32 20/113/32
f 20/114/33 40/115/33 41/116/33 19/117/33
f 19/118/34 41/119/34 42/120/34 18/121/34
f 18/122/35 42/123/35 43/124/35 17/125/35
f 45/126/36 34/127/36 23/128/36
f 25/129/37 35/130/37 43/131/37
f 35/132/38 17/133/38 43/134/38
f 35/135/39 45/136/39 17/137/39
f 25/138/40 44/139/40 35/140/40
f 45/141/41 24/142/41 5/143/41
f 45/144/42 5/145/42 17/146/42
f 44/147/43 25/148/43 1/149/43
f 1/150/44 32/151/44 44/152/44
f 9/153/45 32/154/45 13/155/45
f 24/156/46 23/157/46 12/158/46
f 3/159/47 32/160/47 1/161/47
f 2/162/48 31/163/48 9/164/48
f 23/165/49 22/166/49 6/167/49
f 16/168/50 32/169/50 3/170/50
f 16/171/51 13/172/51 32/173/51
f 5/174/52 24/175/52 7/176/52
f 15/177/53 24/178/53 14/179/53
f 24/180/54 15/181/54 7/182/54
f 37/183/55 36/184/55 33/185/55
f 34/186/56 37/187/56 23/188/56
f 44/189/57 32/190/57 31/191/57
f 45/192/58 23/193/58 24/194/58
f 29/195/59 30/196/59 2/197/59
f 6/198/60 21/199/60 8/200/60
f 39/201/61 38/202/61 30/203/61
f 22/204/62 39/205/62 21/206/62
f 28/207/63 29/208/63 4/209/63
f 8/210/64 20/211/64 11/212/64
f 3/213/65 27/214/65 16/215/65
f 19/216/66 18/217/66 7/218/66