# Made in Blockbench 4.1.3
mtllib CarTyre.mtl

o cylinder
v 0.03125 -6.938893903907228e-18 0
v -0.03125 6.938893903907228e-18 0
v 0.03125 -6.938893903907228e-18 0.109375
v -0.03125 6.938893903907228e-18 0.109375
v 0.031250000000000014 0.054687499999999986 0.09472152853892299
v -0.03124999999999999 0.0546875 0.09472152853892299
v 0.03125000000000002 0.09472152853892296 0.054687500000000014
v -0.03124999999999998 0.09472152853892299 0.054687500000000014
v 0.03125000000000003 0.109375 6.697287182837088e-18
v -0.031249999999999976 0.109375 6.697287182837088e-18
v 0.03125000000000002 0.09472152853892299 -0.05468749999999997
v -0.03124999999999998 0.09472152853892299 -0.05468749999999997
v 0.031250000000000014 0.054687499999999986 -0.09472152853892299
v -0.03124999999999999 0.0546875 -0.09472152853892299
v 0.03125 6.455680461766947e-18 -0.109375
v -0.03125 2.0333468269581404e-17 -0.109375
v 0.031249999999999986 -0.05468750000000002 -0.09472152853892297
v -0.031250000000000014 -0.05468750000000001 -0.09472152853892297
v 0.03124999999999998 -0.09472152853892296 -0.05468750000000005
v -0.03125000000000002 -0.09472152853892296 -0.05468750000000005
v 0.031249999999999976 -0.109375 -2.0091861548511263e-17
v -0.03125000000000003 -0.109375 -2.0091861548511263e-17
v 0.03124999999999998 -0.09472152853892299 0.054687500000000014
v -0.03125000000000002 -0.09472152853892296 0.054687500000000014
v 0.031249999999999986 -0.054687500000000056 0.09472152853892295
v -0.031250000000000014 -0.05468750000000004 0.09472152853892295
vt 0.0546875 0.98534375
vt 0.109375 1
vt 0.109375 0.890625
vt 0.3125 0.9375
vt 0.25 0.9375
vt 0.25 1
vt 0.3125 1
vt 0.109375 0.53125
vt 0.0546875 0.54590625
vt 0.109375 0.640625
vt 0.014656249999999996 0.9453125
vt 0.0546875 0.98534375
vt 0.109375 0.890625
vt 0.3125 0.875
vt 0.25 0.875
vt 0.25 0.9375
vt 0.3125 0.9375
vt 0.0546875 0.54590625
vt 0.014656249999999996 0.5859375
vt 0.109375 0.640625
vt 0 0.890625
vt 0.014656249999999996 0.9453125
vt 0.109375 0.890625
vt 0.3125 0.8125
vt 0.25 0.8125
vt 0.25 0.875
vt 0.3125 0.875
vt 0.014656249999999996 0.5859375
vt 0 0.640625
vt 0.109375 0.640625
vt 0.014656249999999996 0.8359375
vt 0 0.890625
vt 0.109375 0.890625
vt 0.3125 0.75
vt 0.25 0.75
vt 0.25 0.8125
vt 0.3125 0.8125
vt 0 0.640625
vt 0.014656249999999996 0.6953125
vt 0.109375 0.640625
vt 0.0546875 0.79590625
vt 0.014656249999999996 0.8359375
vt 0.109375 0.890625
vt 0.3125 0.6875
vt 0.25 0.6875
vt 0.25 0.75
vt 0.3125 0.75
vt 0.014656249999999996 0.6953125
vt 0.0546875 0.73534375
vt 0.109375 0.640625
vt 0.109375 0.78125
vt 0.0546875 0.79590625
vt 0.109375 0.890625
vt 0.375 0.9375
vt 0.3125 0.9375
vt 0.3125 1
vt 0.375 1
vt 0.0546875 0.73534375
vt 0.109375 0.75
vt 0.109375 0.640625
vt 0.1640625 0.79590625
vt 0.109375 0.78125
vt 0.109375 0.890625
vt 0.375 0.875
vt 0.3125 0.875
vt 0.3125 0.9375
vt 0.375 0.9375
vt 0.109375 0.75
vt 0.1640625 0.73534375
vt 0.109375 0.640625
vt 0.20409375000000002 0.8359375
vt 0.1640625 0.79590625
vt 0.109375 0.890625
vt 0.375 0.8125
vt 0.3125 0.8125
vt 0.3125 0.875
vt 0.375 0.875
vt 0.1640625 0.73534375
vt 0.20409375000000002 0.6953125
vt 0.109375 0.640625
vt 0.21875 0.890625
vt 0.20409375000000002 0.8359375
vt 0.109375 0.890625
vt 0.375 0.75
vt 0.3125 0.75
vt 0.3125 0.8125
vt 0.375 0.8125
vt 0.20409375000000002 0.6953125
vt 0.21875 0.640625
vt 0.109375 0.640625
vt 0.20409375000000002 0.9453125
vt 0.21875 0.890625
vt 0.109375 0.890625
vt 0.3125 0.625
vt 0.25 0.625
vt 0.25 0.6875
vt 0.3125 0.6875
vt 0.21875 0.640625
vt 0.20409375000000002 0.5859375
vt 0.109375 0.640625
vt 0.1640625 0.98534375
vt 0.20409375000000002 0.9453125
vt 0.109375 0.890625
vt 0.375 0.6875
vt 0.3125 0.6875
vt 0.3125 0.75
vt 0.375 0.75
vt 0.20409375000000002 0.5859375
vt 0.1640625 0.54590625
vt 0.109375 0.640625
vt 0.109375 1
vt 0.1640625 0.98534375
vt 0.109375 0.890625
vt 0.375 0.625
vt 0.3125 0.625
vt 0.3125 0.6875
vt 0.375 0.6875
vt 0.1640625 0.54590625
vt 0.109375 0.53125
vt 0.109375 0.640625
vn 1 -2.220446049250313e-16 0
vn 5.746937261686305e-17 0.25881904510252063 0.9659258262890684
vn -1 2.220446049250313e-16 0
vn 1 -2.220446049250313e-16 0
vn 1.570092458683775e-16 0.7071067811865475 0.7071067811865476
vn -1 2.220446049250313e-16 0
vn 1 -2.220446049250313e-16 0
vn 2.144786184852406e-16 0.9659258262890683 0.25881904510252074
vn -1 2.220446049250313e-16 0
vn 1 -2.220446049250313e-16 0
vn 2.144786184852406e-16 0.9659258262890683 -0.2588190451025207
vn -1 2.220446049250313e-16 0
vn 1 -2.220446049250313e-16 0
vn 1.5700924586837754e-16 0.7071067811865477 -0.7071067811865474
vn -1 2.220446049250313e-16 0
vn 1 -2.220446049250313e-16 0
vn 5.746937261686306e-17 0.2588190451025207 -0.9659258262890683
vn -1 2.220446049250313e-16 0
vn 1 -2.220446049250313e-16 0
vn -5.746937261686306e-17 -0.2588190451025207 -0.9659258262890683
vn -1 2.220446049250313e-16 0
vn 1 -2.220446049250313e-16 0
vn -1.5700924586837747e-16 -0.7071067811865474 -0.7071067811865478
vn -1 2.220446049250313e-16 0
vn 1 -2.220446049250313e-16 0
vn -2.144786184852406e-16 -0.9659258262890683 -0.2588190451025209
vn -1 2.220446049250313e-16 0
vn 1 -2.220446049250313e-16 0
vn -2.144786184852406e-16 -0.9659258262890683 0.25881904510252063
vn -1 2.220446049250313e-16 0
vn 1 -2.220446049250313e-16 0
vn -1.5700924586837752e-16 -0.7071067811865476 0.7071067811865475
vn -1 2.220446049250313e-16 0
vn 1 -2.220446049250313e-16 0
vn -5.746937261686315e-17 -0.2588190451025211 0.9659258262890683
vn -1 2.220446049250313e-16 0
usemtl m_0
f 5/1/1 3/2/1 1/3/1
f 3/4/2 5/5/2 6/6/2 4/7/2
f 4/8/3 6/9/3 2/10/3
f 7/11/4 5/12/4 1/13/4
f 5/14/5 7/15/5 8/16/5 6/17/5
f 6/18/6 8/19/6 2/20/6
f 9/21/7 7/22/7 1/23/7
f 7/24/8 9/25/8 10/26/8 8/27/8
f 8/28/9 10/29/9 2/30/9
f 11/31/10 9/32/10 1/33/10
f 9/34/11 11/35/11 12/36/11 10/37/11
f 10/38/12 12/39/12 2/40/12
f 13/41/13 11/42/13 1/43/13
f 11/44/14 13/45/14 14/46/14 12/47/14
f 12/48/15 14/49/15 2/50/15
f 15/51/16 13/52/16 1/53/16
f 13/54/17 15/55/17 16/56/17 14/57/17
f 14/58/18 16/59/18 2/60/18
f 17/61/19 15/62/19 1/63/19
f 15/64/20 17/65/20 18/66/20 16/67/20
f 16/68/21 18/69/21 2/70/21
f 19/71/22 17/72/22 1/73/22
f 17/74/23 19/75/23 20/76/23 18/77/23
f 18/78/24 20/79/24 2/80/24
f 21/81/25 19/82/25 1/83/25
f 19/84/26 21/85/26 22/86/26 20/87/26
f 20/88/27 22/89/27 2/90/27
f 23/91/28 21/92/28 1/93/28
f 21/94/29 23/95/29 24/96/29 22/97/29
f 22/98/30 24/99/30 2/100/30
f 25/101/31 23/102/31 1/103/31
f 23/104/32 25/105/32 26/106/32 24/107/32
f 24/108/33 26/109/33 2/110/33
f 3/111/34 25/112/34 1/113/34
f 25/114/35 3/115/35 4/116/35 26/117/35
f 26/118/36 4/119/36 2/120/36